<?xml version="1.0" standalone="no"?>
<!DOCTYPE svg PUBLIC "-//W3C//DTD SVG 1.1//EN" "http://www.w3.org/Graphics/SVG/1.1/DTD/svg11.dtd">
<svg width="100%" height="100%" viewBox="0 0 603 294" version="1.1" xmlns="http://www.w3.org/2000/svg" xmlns:xlink="http://www.w3.org/1999/xlink" xml:space="preserve" style="fill-rule:evenodd;clip-rule:evenodd;stroke-linejoin:round;stroke-miterlimit:1.41421;">
    <g transform="matrix(1,0,0,1,-361.111,-269.821)">
        <g id="Layer1">
            <g transform="matrix(0.818836,-0.000875704,-0.000875704,0.818836,-403.197,-204.086)">
                <path d="M1364.55,587.842C1366.57,585.822 1369.31,584.689 1372.17,584.692C1375.03,584.695 1377.77,585.834 1379.8,587.859C1396.72,604.785 1437.24,645.301 1454.17,662.227C1456.19,664.251 1457.33,666.996 1457.33,669.856C1457.34,672.716 1456.2,675.458 1454.18,677.478C1437.77,693.888 1400.55,731.109 1400.55,731.109L1381.63,712.184L1423.95,669.86L1372.16,618.075L1329.84,660.398L1310.92,641.473C1310.92,641.473 1348.14,604.253 1364.55,587.842ZM1362.54,769.125L1320.38,811.282C1320.38,811.282 1314.33,817.331 1309.07,822.589C1307.05,824.61 1304.31,825.743 1301.45,825.74C1298.59,825.737 1295.84,824.598 1293.82,822.573C1266.79,795.539 1175.78,704.528 1148.74,677.494C1146.72,675.47 1145.58,672.725 1145.57,669.865C1145.57,667.005 1146.7,664.263 1148.73,662.243C1165.65,645.321 1206.2,604.764 1223.12,587.842C1225.15,585.822 1227.89,584.689 1230.75,584.692C1233.61,584.695 1236.35,585.834 1238.38,587.859C1270.25,619.736 1391.09,740.571 1391.09,740.571L1372,759.663L1230.74,618.075L1178.96,669.86L1230.74,721.646L1272.9,679.49L1291.82,698.415L1249.67,740.571L1301.45,792.357L1343.61,750.201L1362.54,769.125Z" style="fill:rgb(224,255,53);"/>
            </g>
            <g transform="matrix(0.684667,0,0,0.684667,-170.469,213.747)">
                <g transform="matrix(1,0,0,1,-166.019,0)">
                    <path d="M942.426,508.621L942.426,422.862L991.926,422.862L991.926,430.163L950.841,430.163L950.841,459.987L987.471,459.987L987.471,467.164L950.841,467.164L950.841,501.319L995.144,501.319L995.144,508.621L942.426,508.621Z" style="fill:white;fill-rule:nonzero;"/>
                </g>
                <g transform="matrix(1,0,0,1,-124.515,0)">
                    <path d="M1069.52,508.621C1067.95,505.733 1065.95,502.351 1063.52,498.473C1061.08,494.596 1058.42,490.45 1055.53,486.036C1052.65,481.623 1049.59,477.085 1046.38,472.424C1043.16,467.763 1039.96,463.225 1036.79,458.811C1033.61,454.398 1030.52,450.252 1027.5,446.374C1024.49,442.497 1021.79,439.156 1019.4,436.351L1019.4,508.621L1011.11,508.621L1011.11,422.862L1017.79,422.862C1022,427.564 1026.51,432.989 1031.34,439.135C1036.17,445.281 1040.89,451.551 1045.51,457.945C1050.13,464.339 1054.44,470.588 1058.44,476.693C1062.44,482.798 1065.72,488.119 1068.28,492.657L1068.28,422.862L1076.57,422.862L1076.57,508.621L1069.52,508.621Z" style="fill:white;fill-rule:nonzero;"/>
                </g>
                <g transform="matrix(1,0,0,1,-83.0097,0)">
                    <path d="M1117.29,503.176C1123.97,503.176 1129.16,501.959 1132.88,499.525C1136.59,497.091 1138.45,493.152 1138.45,487.707C1138.45,484.572 1137.85,481.953 1136.65,479.849C1135.46,477.745 1133.87,475.971 1131.89,474.528C1129.91,473.084 1127.64,471.846 1125.08,470.815C1122.52,469.784 1119.84,468.691 1117.04,467.536C1113.49,466.133 1110.31,464.689 1107.51,463.204C1104.7,461.719 1102.31,460.049 1100.33,458.193C1098.35,456.336 1096.85,454.212 1095.81,451.819C1094.78,449.427 1094.27,446.622 1094.27,443.404C1094.27,436.062 1096.7,430.493 1101.57,426.698C1106.44,422.903 1113.2,421.006 1121.86,421.006C1124.17,421.006 1126.44,421.171 1128.67,421.501C1130.9,421.831 1132.98,422.264 1134.92,422.8C1136.86,423.336 1138.63,423.934 1140.24,424.594C1141.85,425.254 1143.19,425.956 1144.26,426.698L1141.29,433.752C1138.9,432.102 1135.99,430.782 1132.57,429.792C1129.14,428.802 1125.45,428.307 1121.49,428.307C1118.77,428.307 1116.27,428.575 1114.01,429.111C1111.74,429.648 1109.78,430.514 1108.13,431.71C1106.48,432.906 1105.18,434.412 1104.23,436.227C1103.28,438.042 1102.81,440.228 1102.81,442.786C1102.81,445.426 1103.3,447.653 1104.29,449.468C1105.28,451.283 1106.66,452.851 1108.44,454.171C1110.21,455.491 1112.29,456.687 1114.69,457.759C1117.08,458.832 1119.68,459.946 1122.48,461.101C1125.87,462.503 1129.06,463.906 1132.07,465.308C1135.08,466.711 1137.7,468.361 1139.93,470.258C1142.16,472.156 1143.93,474.466 1145.25,477.188C1146.57,479.911 1147.23,483.252 1147.23,487.212C1147.23,494.967 1144.53,500.783 1139.13,504.661C1133.72,508.538 1126.4,510.477 1117.16,510.477C1113.86,510.477 1110.85,510.271 1108.13,509.858C1105.4,509.446 1102.97,508.93 1100.83,508.311C1098.68,507.693 1096.87,507.053 1095.38,506.393C1093.9,505.733 1092.74,505.156 1091.92,504.661L1094.64,497.359C1095.46,497.854 1096.58,498.432 1097.98,499.092C1099.38,499.752 1101.03,500.391 1102.93,501.01C1104.83,501.629 1106.97,502.144 1109.37,502.557C1111.76,502.969 1114.4,503.176 1117.29,503.176Z" style="fill:white;fill-rule:nonzero;"/>
                </g>
                <g transform="matrix(1,0,0,1,-41.5048,0)">
                    <path d="M1162.83,508.621L1162.83,422.862L1212.33,422.862L1212.33,430.163L1171.24,430.163L1171.24,459.987L1207.87,459.987L1207.87,467.164L1171.24,467.164L1171.24,501.319L1215.54,501.319L1215.54,508.621L1162.83,508.621Z" style="fill:white;fill-rule:nonzero;"/>
                </g>
                <path d="M1269.99,496.246C1269.17,494.183 1267.99,491.461 1266.47,488.078C1264.94,484.696 1263.23,481.004 1261.33,477.003C1259.43,473.001 1257.49,468.876 1255.51,464.628C1253.53,460.379 1251.64,456.398 1249.82,452.686C1248.01,448.973 1246.4,445.714 1245,442.909C1243.59,440.104 1242.56,438.124 1241.9,436.969C1240.83,447.282 1239.98,458.481 1239.36,470.568C1238.75,482.654 1238.19,495.338 1237.69,508.621L1229.4,508.621C1230.14,493.028 1230.99,478.096 1231.94,463.823C1232.89,449.551 1234.06,435.897 1235.47,422.862L1242.89,422.862C1245.37,426.987 1248.01,431.751 1250.81,437.155C1253.62,442.559 1256.4,448.169 1259.16,453.985C1261.93,459.801 1264.61,465.535 1267.21,471.186C1269.81,476.838 1272.1,481.932 1274.08,486.469C1276.06,481.932 1278.35,476.838 1280.94,471.186C1283.54,465.535 1286.22,459.801 1288.99,453.985C1291.75,448.169 1294.54,442.559 1297.34,437.155C1300.15,431.751 1302.79,426.987 1305.26,422.862L1312.32,422.862C1313.72,435.897 1314.89,449.551 1315.84,463.823C1316.79,478.096 1317.64,493.028 1318.38,508.621L1309.84,508.621C1309.35,495.338 1308.79,482.654 1308.17,470.568C1307.55,458.481 1306.7,447.282 1305.63,436.969C1304.97,438.124 1303.94,440.104 1302.54,442.909C1301.14,445.714 1299.53,448.973 1297.71,452.686C1295.9,456.398 1294,460.379 1292.02,464.628C1290.04,468.876 1288.1,473.001 1286.2,477.003C1284.31,481.004 1282.59,484.696 1281.07,488.078C1279.54,491.461 1278.37,494.183 1277.54,496.246L1269.99,496.246Z" style="fill:white;fill-rule:nonzero;"/>
                <g transform="matrix(1,0,0,1,41.5048,0)">
                    <path d="M1359.09,509.363C1357.69,509.363 1356.06,509.301 1354.2,509.178C1352.35,509.054 1350.45,508.889 1348.51,508.683C1346.57,508.476 1344.74,508.229 1343.01,507.94C1341.27,507.651 1339.79,507.342 1338.55,507.012L1338.55,424.471C1340.04,424.058 1341.68,423.708 1343.5,423.419C1345.32,423.13 1347.19,422.883 1349.13,422.676C1351.07,422.47 1352.97,422.326 1354.82,422.243C1356.68,422.161 1358.39,422.119 1359.96,422.119C1364.58,422.119 1368.97,422.491 1373.14,423.233C1377.3,423.976 1380.95,425.213 1384.09,426.946C1387.23,428.678 1389.72,430.968 1391.58,433.814C1393.43,436.66 1394.36,440.187 1394.36,444.394C1394.36,449.014 1393.19,452.954 1390.83,456.213C1388.48,459.471 1385.33,461.719 1381.37,462.957C1383.84,463.534 1386.11,464.359 1388.17,465.432C1390.24,466.504 1392.05,467.886 1393.62,469.578C1395.19,471.269 1396.4,473.331 1397.27,475.765C1398.14,478.199 1398.57,481.107 1398.57,484.489C1398.57,492.574 1395.35,498.741 1388.92,502.99C1382.48,507.239 1372.54,509.363 1359.09,509.363ZM1346.96,467.536L1346.96,501.319C1348.2,501.484 1350.06,501.67 1352.53,501.876C1355.01,502.083 1357.53,502.186 1360.08,502.186C1363.88,502.186 1367.57,501.938 1371.16,501.443C1374.75,500.948 1377.9,500.041 1380.62,498.721C1383.35,497.401 1385.53,495.586 1387.18,493.276C1388.83,490.966 1389.66,487.996 1389.66,484.366C1389.66,481.066 1389.08,478.323 1387.93,476.136C1386.77,473.95 1385.12,472.218 1382.98,470.939C1380.83,469.66 1378.21,468.773 1375.12,468.278C1372.02,467.783 1368.58,467.536 1364.79,467.536L1346.96,467.536ZM1346.96,460.358L1363.3,460.358C1366.35,460.358 1369.24,460.131 1371.96,459.678C1374.68,459.224 1377.06,458.399 1379.08,457.203C1381.1,456.006 1382.69,454.398 1383.84,452.376C1385,450.355 1385.58,447.777 1385.58,444.642C1385.58,441.837 1384.96,439.465 1383.72,437.526C1382.48,435.588 1380.73,433.999 1378.46,432.762C1376.19,431.524 1373.49,430.638 1370.35,430.101C1367.22,429.565 1363.75,429.297 1359.96,429.297C1356.91,429.297 1354.33,429.379 1352.22,429.544C1350.12,429.709 1348.37,429.916 1346.96,430.163L1346.96,460.358Z" style="fill:white;fill-rule:nonzero;"/>
                </g>
                <g transform="matrix(1,0,0,1,83.0097,0)">
                    <path d="M1465.27,501.319L1465.27,508.621L1416.51,508.621L1416.51,422.862L1424.93,422.862L1424.93,501.319L1465.27,501.319Z" style="fill:white;fill-rule:nonzero;"/>
                </g>
                <g transform="matrix(1,0,0,1,124.515,0)">
                    <path d="M1478.63,508.621L1478.63,422.862L1528.13,422.862L1528.13,430.163L1487.05,430.163L1487.05,459.987L1523.68,459.987L1523.68,467.164L1487.05,467.164L1487.05,501.319L1531.35,501.319L1531.35,508.621L1478.63,508.621Z" style="fill:white;fill-rule:nonzero;"/>
                </g>
            </g>
            <g transform="matrix(0.212004,0,0,0.212004,511.195,374.447)">
                <text x="931.289px" y="508.621px" style="font-family:Ubuntu;font-size:123.75px;font-weight:300;fill:white;">stay smarter together</text>
            </g>
        </g>
    </g>
</svg>
