<?xml version="1.0" standalone="no"?>
<!DOCTYPE svg PUBLIC "-//W3C//DTD SVG 1.1//EN" "http://www.w3.org/Graphics/SVG/1.1/DTD/svg11.dtd">
<svg width="100%" height="100%" viewBox="0 0 433 218" version="1.1" xmlns="http://www.w3.org/2000/svg" xmlns:xlink="http://www.w3.org/1999/xlink" xml:space="preserve" style="fill-rule:evenodd;clip-rule:evenodd;stroke-linejoin:round;stroke-miterlimit:1.41421;">
    <g transform="matrix(1,0,0,1,-530.595,-269.821)">
        <g transform="matrix(0.818836,-0.000875704,-0.000875704,0.818836,-403.197,-204.086)">
            <path d="M1364.55,587.842C1366.57,585.822 1369.31,584.689 1372.17,584.692C1375.03,584.695 1377.77,585.834 1379.8,587.859C1396.72,604.785 1437.24,645.301 1454.17,662.227C1456.19,664.251 1457.33,666.996 1457.33,669.856C1457.34,672.716 1456.2,675.458 1454.18,677.478C1437.77,693.888 1400.55,731.109 1400.55,731.109L1381.63,712.184L1423.95,669.86L1372.16,618.075L1329.84,660.398L1310.92,641.473C1310.92,641.473 1348.14,604.253 1364.55,587.842ZM1362.54,769.125L1320.38,811.282C1320.38,811.282 1314.33,817.331 1309.07,822.589C1307.05,824.61 1304.31,825.743 1301.45,825.74C1298.59,825.737 1295.84,824.598 1293.82,822.573C1266.79,795.539 1175.78,704.528 1148.74,677.494C1146.72,675.47 1145.58,672.725 1145.57,669.865C1145.57,667.005 1146.7,664.263 1148.73,662.243C1165.65,645.321 1206.2,604.764 1223.12,587.842C1225.15,585.822 1227.89,584.689 1230.75,584.692C1233.61,584.695 1236.35,585.834 1238.38,587.859C1270.25,619.736 1391.09,740.571 1391.09,740.571L1372,759.663L1230.74,618.075L1178.96,669.86L1230.74,721.646L1272.9,679.49L1291.82,698.415L1249.67,740.571L1301.45,792.357L1343.61,750.201L1362.54,769.125Z" style="fill:rgb(224,255,53);"/>
        </g>
        <g transform="matrix(0.212004,0,0,0.212004,511.195,374.447)">
            <text x="931.289px" y="508.621px" style="font-family:Ubuntu;font-size:123.75px;font-weight:300;fill:white;">stay smarter together</text>
        </g>
    </g>
</svg>
