<?xml version="1.0" encoding="UTF-8" standalone="no"?>
<svg width="769px" height="127px" viewBox="0 0 769 127" version="1.1" xmlns="http://www.w3.org/2000/svg" xmlns:xlink="http://www.w3.org/1999/xlink" xmlns:sketch="http://www.bohemiancoding.com/sketch/ns">
    <!-- Generator: Sketch 3.2.2 (9983) - http://www.bohemiancoding.com/sketch -->
    <title>ensemble</title>
    <desc>Created with Sketch.</desc>
    <defs>
        <filter x="-50%" y="-50%" width="200%" height="200%" filterUnits="objectBoundingBox" id="filter-1">
            <feOffset dx="0" dy="2" in="SourceAlpha" result="shadowOffsetOuter1"></feOffset>
            <feGaussianBlur stdDeviation="2" in="shadowOffsetOuter1" result="shadowBlurOuter1"></feGaussianBlur>
            <feColorMatrix values="0 0 0 0 0   0 0 0 0 0   0 0 0 0 0  0 0 0 0.35 0" in="shadowBlurOuter1" type="matrix" result="shadowMatrixOuter1"></feColorMatrix>
            <feOffset dx="0" dy="1" in="SourceAlpha" result="shadowOffsetInner1"></feOffset>
            <feGaussianBlur stdDeviation="1.5" in="shadowOffsetInner1" result="shadowBlurInner1"></feGaussianBlur>
            <feComposite in="shadowBlurInner1" in2="SourceAlpha" operator="arithmetic" k2="-1" k3="1" result="shadowInnerInner1"></feComposite>
            <feColorMatrix values="0 0 0 0 1   0 0 0 0 1   0 0 0 0 1  0 0 0 0.35 0" in="shadowInnerInner1" type="matrix" result="shadowMatrixInner1"></feColorMatrix>
            <feMerge>
                <feMergeNode in="shadowMatrixOuter1"></feMergeNode>
                <feMergeNode in="SourceGraphic"></feMergeNode>
                <feMergeNode in="shadowMatrixInner1"></feMergeNode>
            </feMerge>
        </filter>
        <path d="M45.8764368,120.236025 C33.2399751,120.236025 23.1015708,116.242752 15.4609195,108.256086 C7.82026831,100.140603 4,89.4489371 4,76.1807668 C4,62.9125964 7.82026831,52.2209301 15.4609195,44.1054473 C23.1015708,36.1187816 33.2399751,32.1255087 45.8764368,32.1255087 C58.5128984,32.1255087 68.6513028,35.7967435 76.291954,43.1393232 C83.9326053,50.4819029 87.7528736,60.2718624 87.7528736,72.5094953 L87.7528736,76.1807668 L12.816092,76.1807668 C12.816092,87.3878621 15.8282266,96.3405224 21.8525862,103.039016 C27.8769458,109.73751 35.8848159,113.086707 45.8764368,113.086707 C53.3701524,113.086707 60.1290887,111.347701 66.1534483,107.869637 C72.3247435,104.262755 76.585812,99.5609985 78.9367816,93.764225 L87.7528736,93.764225 C86.2835176,101.364439 81.5816489,107.676387 73.6471264,112.700257 C65.712604,117.724127 56.4558,120.236025 45.8764368,120.236025 L45.8764368,120.236025 Z M12.816092,68.8382237 L78.9367816,68.8382237 L78.9367816,65.9398515 C78.2021036,58.3396374 74.6757021,51.8988746 68.3574713,46.6173699 C61.8923048,41.4646824 54.3987016,38.8883772 45.8764368,38.8883772 C37.3541719,38.8883772 29.9340354,41.52909 23.6158046,46.8105947 C17.1506382,52.2209166 13.55077,58.8549023 12.816092,66.7127508 L12.816092,68.8382237 Z M117.286782,117.337653 L108.47069,117.337653 L108.47069,35.0238809 L117.286782,35.0238809 L117.286782,48.9360677 C119.931622,44.0410145 123.972291,40.1765569 129.408908,37.3425787 C134.845525,34.3797834 140.869795,32.8984079 147.481897,32.8984079 C156.738839,32.8984079 164.599776,35.5391207 171.064943,40.8206254 C177.677045,46.2309473 180.983046,52.6717101 180.983046,60.143107 L180.983046,117.337653 L172.166954,117.337653 L172.166954,60.143107 C172.166954,54.4751507 169.742553,49.6445786 164.893678,45.6512458 C160.044803,41.657913 154.240934,39.6612765 147.481897,39.6612765 C140.135117,39.6612765 133.59658,41.8511359 127.866092,46.2309203 C122.135604,50.7395218 118.609202,56.3429855 117.286782,63.0414793 L117.286782,117.337653 Z M235.863218,119.463126 C225.871598,119.463126 217.422927,116.88682 210.516954,111.734133 C203.464045,106.581445 199.937644,100.333905 199.937644,92.9913258 L208.092529,92.9913258 C208.092529,98.5304649 210.810797,103.296629 216.247414,107.289962 C221.684031,111.154478 228.222567,113.086707 235.863218,113.086707 C244.679354,113.086707 251.805624,111.347701 257.242241,107.869637 C262.531923,104.262755 265.176724,99.5609985 265.176724,93.764225 C265.176724,89.3844406 262.38499,85.6487982 256.801437,82.5571857 C251.217884,79.5943904 243.724281,77.7265692 234.320402,76.953666 C224.328781,76.1807629 216.394378,73.733273 210.516954,69.611123 C204.492594,65.488973 201.48046,60.4007704 201.48046,54.3463625 C201.48046,47.5190516 204.492594,42.2376261 210.516954,38.5019276 C216.541314,34.7662292 224.989984,32.8984079 235.863218,32.8984079 C246.295646,32.8984079 254.597383,34.8950444 260.768678,38.8883772 C267.086909,42.8817101 270.245977,48.2275432 270.245977,54.926037 L261.87069,54.926037 C260.84214,49.9021666 258.050406,45.9733013 253.495402,43.1393232 C248.940399,40.3053451 243.063063,38.8883772 235.863218,38.8883772 C227.928696,38.8883772 221.61056,40.3053451 216.908621,43.1393232 C212.206681,45.9733013 209.855747,49.7089438 209.855747,54.3463625 C209.855747,58.7261469 212.720948,62.4617894 218.451437,65.5534019 C224.03499,68.5161972 231.528593,70.3840184 240.932471,71.1569215 C250.777157,71.9298247 258.71156,74.5061298 264.73592,78.8859142 C270.613344,83.2656986 273.552011,88.740347 273.552011,95.3100236 C273.552011,102.652603 270.099077,108.513697 263.193103,112.893482 C256.434066,117.273266 247.324195,119.463126 235.863218,119.463126 L235.863218,119.463126 Z M330.195402,120.236025 C317.558941,120.236025 307.420536,116.242752 299.779885,108.256086 C292.139234,100.140603 288.318966,89.4489371 288.318966,76.1807668 C288.318966,62.9125964 292.139234,52.2209301 299.779885,44.1054473 C307.420536,36.1187816 317.558941,32.1255087 330.195402,32.1255087 C342.831864,32.1255087 352.970268,35.7967435 360.61092,43.1393232 C368.251571,50.4819029 372.071839,60.2718624 372.071839,72.5094953 L372.071839,76.1807668 L297.135057,76.1807668 C297.135057,87.3878621 300.147192,96.3405224 306.171552,103.039016 C312.195911,109.73751 320.203781,113.086707 330.195402,113.086707 C337.689118,113.086707 344.448054,111.347701 350.472414,107.869637 C356.643709,104.262755 360.904778,99.5609985 363.255747,93.764225 L372.071839,93.764225 C370.602483,101.364439 365.900614,107.676387 357.966092,112.700257 C350.03157,117.724127 340.774766,120.236025 330.195402,120.236025 L330.195402,120.236025 Z M297.135057,68.8382237 L363.255747,68.8382237 L363.255747,65.9398515 C362.521069,58.3396374 358.994668,51.8988746 352.676437,46.6173699 C346.21127,41.4646824 338.717667,38.8883772 330.195402,38.8883772 C321.673137,38.8883772 314.253001,41.52909 307.93477,46.8105947 C301.469604,52.2209166 297.869735,58.8549023 297.135057,66.7127508 L297.135057,68.8382237 Z M401.605747,117.337653 L392.789655,117.337653 L392.789655,35.0238809 L401.605747,35.0238809 L401.605747,48.9360677 C404.250588,44.0410145 407.99739,40.1765569 412.846264,37.3425787 C417.695139,34.3797834 422.911275,32.8984079 428.494828,32.8984079 C435.10693,32.8984079 440.910799,34.444191 445.906609,37.5358035 C451.049355,40.7562332 454.355357,44.8139138 455.824713,49.7089669 C458.616489,44.5562794 462.804091,40.4985989 468.387644,37.5358035 C474.118132,34.444191 480.362801,32.8984079 487.121839,32.8984079 C495.497168,32.8984079 502.696905,35.4103054 508.721264,40.4341758 C514.598688,45.4580461 517.537356,51.5123631 517.537356,58.5973085 L517.537356,117.337653 L508.721264,117.337653 L508.721264,58.5973085 C508.721264,53.1869866 506.59073,48.5496374 502.329598,44.6851217 C498.215401,40.8206061 493.146199,38.8883772 487.121839,38.8883772 C480.215866,38.8883772 474.044663,41.013829 468.608046,45.2647962 C463.171429,49.5157634 459.791961,54.9260041 458.46954,61.4956807 L458.46954,117.337653 L449.653448,117.337653 L449.653448,58.5973085 C449.653448,53.1869866 447.669847,48.5496374 443.702586,44.6851217 C439.735325,40.8206061 434.95999,38.8883772 429.376437,38.8883772 C422.764335,38.8883772 416.813532,41.1426442 411.523851,45.6512458 C406.381105,50.2886646 403.075103,56.0853511 401.605747,63.0414793 L401.605747,117.337653 Z M586.082471,120.236025 C579.176498,120.236025 572.711429,118.497019 566.687069,115.018955 C560.809645,111.669708 556.328176,107.096766 553.242529,101.299993 L553.242529,117.337653 L544.426437,117.337653 L544.426437,2.75533662 L553.242529,2.75533662 L553.242529,53.5734633 C555.740434,47.6478726 560.001502,42.8173005 566.025862,39.0816021 C572.050222,35.4747208 578.735691,33.6713072 586.082471,33.6713072 C598.425062,33.6713072 608.269599,37.6001725 615.616379,45.458021 C623.110095,53.3158695 626.856897,63.8143128 626.856897,76.953666 C626.856897,90.0930192 623.110095,100.591463 615.616379,108.449311 C608.269599,116.30716 598.425062,120.236025 586.082471,120.236025 L586.082471,120.236025 Z M586.082471,113.666381 C595.927157,113.666381 603.86156,110.317184 609.88592,103.618691 C615.763344,96.9201969 618.702011,88.0319442 618.702011,76.953666 C618.702011,65.8753878 615.763344,56.9871352 609.88592,50.2886414 C603.86156,43.5901476 595.927157,40.240951 586.082471,40.240951 C576.972464,40.240951 569.258461,43.8477781 562.94023,51.0615407 C556.475063,58.146486 553.242529,66.7771082 553.242529,76.953666 C553.242529,87.1302239 556.475063,95.760846 562.94023,102.845791 C569.258461,110.059554 576.972464,113.666381 586.082471,113.666381 L586.082471,113.666381 Z M658.154023,117.337653 L649.337931,117.337653 L649.337931,2.75533662 L658.154023,2.75533662 L658.154023,117.337653 Z M722.511494,120.236025 C709.875033,120.236025 699.736628,116.242752 692.095977,108.256086 C684.455326,100.140603 680.635057,89.4489371 680.635057,76.1807668 C680.635057,62.9125964 684.455326,52.2209301 692.095977,44.1054473 C699.736628,36.1187816 709.875033,32.1255087 722.511494,32.1255087 C735.147956,32.1255087 745.28636,35.7967435 752.927011,43.1393232 C760.567663,50.4819029 764.387931,60.2718624 764.387931,72.5094953 L764.387931,76.1807668 L689.451149,76.1807668 C689.451149,87.3878621 692.463284,96.3405224 698.487644,103.039016 C704.512003,109.73751 712.519873,113.086707 722.511494,113.086707 C730.00521,113.086707 736.764146,111.347701 742.788506,107.869637 C748.959801,104.262755 753.220869,99.5609985 755.571839,93.764225 L764.387931,93.764225 C762.918575,101.364439 758.216706,107.676387 750.282184,112.700257 C742.347661,117.724127 733.090857,120.236025 722.511494,120.236025 L722.511494,120.236025 Z M689.451149,68.8382237 L755.571839,68.8382237 L755.571839,65.9398515 C754.837161,58.3396374 751.31076,51.8988746 744.992529,46.6173699 C738.527362,41.4646824 731.033759,38.8883772 722.511494,38.8883772 C713.989229,38.8883772 706.569093,41.52909 700.250862,46.8105947 C693.785696,52.2209166 690.185827,58.8549023 689.451149,66.7127508 L689.451149,68.8382237 Z" id="path-2"></path>
    </defs>
    <g id="Page-1" stroke="none" stroke-width="1" fill="none" fill-rule="evenodd" sketch:type="MSPage">
        <g id="ensemble" filter="url(#filter-1)">
            <use stroke="none" fill="#EEEEF1" fill-rule="evenodd" sketch:type="MSShapeGroup" xlink:href="#path-2"></use>
            <use stroke="#000000" stroke-width="1" fill="none" xlink:href="#path-2"></use>
        </g>
    </g>
</svg>
