<?xml version="1.0" encoding="UTF-8" standalone="no"?>
<svg width="716px" height="80px" viewBox="0 0 716 80" version="1.1" xmlns="http://www.w3.org/2000/svg" xmlns:xlink="http://www.w3.org/1999/xlink" xmlns:sketch="http://www.bohemiancoding.com/sketch/ns">
    <!-- Generator: Sketch 3.2.2 (9983) - http://www.bohemiancoding.com/sketch -->
    <title>Group</title>
    <desc>Created with Sketch.</desc>
    <defs></defs>
    <g id="Page-1" stroke="none" stroke-width="1" fill="none" fill-rule="evenodd" sketch:type="MSPage">
        <g id="Group" sketch:type="MSLayerGroup">
            <path d="M353,35 L357,35 L357,75 L353,75 L353,35 Z" id="Fill-190" fill="#5B4D37" sketch:type="MSShapeGroup"></path>
            <path d="M377.504,45.93 C377.504,58.147 367.598,68.053 355.38,68.053 C343.163,68.053 333.258,58.147 333.258,45.93 C333.258,33.711 343.163,23.807 355.38,23.807 C367.598,23.807 377.504,33.711 377.504,45.93" id="Fill-70" fill="#AEB986" sketch:type="MSShapeGroup"></path>
            <path d="M19,35 L23,35 L23,75 L19,75 L19,35 Z" id="Fill-79" fill="#5B4D37" sketch:type="MSShapeGroup"></path>
            <path d="M40,48 L43,48 L43,75 L40,75 L40,48 Z" id="Fill-81" fill="#5B4D37" sketch:type="MSShapeGroup"></path>
            <path d="M102,63 L106,63 L106,75 L102,75 L102,63 Z" id="Fill-165" fill="#5B4D37" sketch:type="MSShapeGroup"></path>
            <path d="M122,35 L126,35 L126,75 L122,75 L122,35 Z" id="Fill-166" fill="#5B4D37" sketch:type="MSShapeGroup"></path>
            <path d="M139.381,45.045 C139.381,53.842 132.25,60.974 123.452,60.974 C114.654,60.974 107.523,53.842 107.523,45.045 C107.523,36.247 114.654,11.416 123.452,11.416 C132.25,11.416 139.381,36.247 139.381,45.045" id="Fill-167" fill="#497761" sketch:type="MSShapeGroup"></path>
            <path d="M334,35 L337,35 L337,75 L334,75 L334,35 Z" id="Fill-168" fill="#5B4D37" sketch:type="MSShapeGroup"></path>
            <path d="M351.841,42.39 C351.841,51.187 344.709,58.318 335.912,58.318 C327.114,58.318 319.982,51.187 319.982,42.39 C319.982,33.592 327.114,8.762 335.912,8.762 C344.709,8.762 351.841,33.592 351.841,42.39" id="Fill-169" fill="#497761" sketch:type="MSShapeGroup"></path>
            <path d="M445,37 L449,37 L449,77 L445,77 L445,37 Z" id="Fill-191" fill="#5B4D37" sketch:type="MSShapeGroup"></path>
            <path d="M469.504,47.93 C469.504,60.147 459.598,70.053 447.38,70.053 C435.163,70.053 425.258,60.147 425.258,47.93 C425.258,35.711 435.163,25.807 447.38,25.807 C459.598,25.807 469.504,35.711 469.504,47.93" id="Fill-182" fill="#AEB986" sketch:type="MSShapeGroup"></path>
            <path d="M426,37 L429,37 L429,77 L426,77 L426,37 Z" id="Fill-183" fill="#5B4D37" sketch:type="MSShapeGroup"></path>
            <path d="M443.841,44.39 C443.841,53.187 436.709,60.318 427.912,60.318 C419.114,60.318 411.982,53.187 411.982,44.39 C411.982,35.592 419.114,10.762 427.912,10.762 C436.709,10.762 443.841,35.592 443.841,44.39" id="Fill-184" fill="#497761" sketch:type="MSShapeGroup"></path>
            <path d="M283,35 L286,35 L286,75 L283,75 L283,35 Z" id="Fill-170" fill="#5B4D37" sketch:type="MSShapeGroup"></path>
            <path d="M297.032,52.255 C297.032,59.423 291.221,65.233 284.053,65.233 C276.886,65.233 271.075,59.423 271.075,52.255 C271.075,45.087 276.886,24.855 284.053,24.855 C291.221,24.855 297.032,45.087 297.032,52.255" id="Fill-171" fill="#509877" sketch:type="MSShapeGroup"></path>
            <path d="M463,40 L466,40 L466,80 L463,80 L463,40 Z" id="Fill-193" fill="#5B4D37" sketch:type="MSShapeGroup"></path>
            <path d="M477.032,57.255 C477.032,64.423 471.221,70.233 464.053,70.233 C456.886,70.233 451.075,64.423 451.075,57.255 C451.075,50.087 456.886,29.855 464.053,29.855 C471.221,29.855 477.032,50.087 477.032,57.255" id="Fill-192" fill="#509877" sketch:type="MSShapeGroup"></path>
            <path d="M41.081,25.575 C41.081,36.817 31.967,45.93 20.727,45.93 C9.486,45.93 0.373,36.817 0.373,25.575 C0.373,14.334 9.486,5.222 20.727,5.222 C31.967,5.222 41.081,14.334 41.081,25.575" id="Fill-172" fill="#AEB986" sketch:type="MSShapeGroup"></path>
            <path d="M204,35 L208,35 L208,75 L204,75 L204,35 Z" id="Fill-173" fill="#5B4D37" sketch:type="MSShapeGroup"></path>
            <path d="M231.646,38.85 C231.646,53.024 220.156,64.514 205.982,64.514 C191.81,64.514 180.319,53.024 180.319,38.85 C180.319,24.676 191.81,13.187 205.982,13.187 C220.156,13.187 231.646,24.676 231.646,38.85" id="Fill-174" fill="#AEB986" sketch:type="MSShapeGroup"></path>
            <path d="M115.487,33.098 C115.487,50.937 110.336,65.398 103.983,65.398 C97.629,65.398 92.479,50.937 92.479,33.098 C92.479,15.259 97.629,0.797 103.983,0.797 C110.336,0.797 115.487,15.259 115.487,33.098" id="Fill-175" fill="#7A9F7C" sketch:type="MSShapeGroup"></path>
            <path d="M698,35 L701,35 L701,75 L698,75 L698,35 Z" id="Fill-176" fill="#5B4D37" sketch:type="MSShapeGroup"></path>
            <path d="M654,35 L658,35 L658,75 L654,75 L654,35 Z" id="Fill-177" fill="#5B4D37" sketch:type="MSShapeGroup"></path>
            <path d="M715.627,45.045 C715.627,53.842 708.496,60.974 699.698,60.974 C690.9,60.974 683.77,53.842 683.77,45.045 C683.77,36.247 690.9,29.115 699.698,29.115 C708.496,29.115 715.627,36.247 715.627,45.045" id="Fill-178" fill="#AEB986" sketch:type="MSShapeGroup"></path>
            <path d="M576,41 L580,41 L580,75 L576,75 L576,41 Z" id="Fill-179" fill="#5B4D37" sketch:type="MSShapeGroup"></path>
            <path d="M594.283,51.239 C594.283,60.037 587.151,67.169 578.354,67.169 C569.556,67.169 562.424,60.037 562.424,51.239 C562.424,42.441 569.556,35.31 578.354,35.31 C587.151,35.31 594.283,42.441 594.283,51.239" id="Fill-180" fill="#AEB986" sketch:type="MSShapeGroup"></path>
            <path d="M664.689,40.178 C664.689,53.898 660.727,65.024 655.84,65.024 C650.953,65.024 646.99,53.898 646.99,40.178 C646.99,26.455 650.953,15.33 655.84,15.33 C660.727,15.33 664.689,26.455 664.689,40.178" id="Fill-181" fill="#7A9F7C" sketch:type="MSShapeGroup"></path>
            <path d="M221,35 L224,35 L224,75 L221,75 L221,35 Z" id="Fill-185" fill="#5B4D37" sketch:type="MSShapeGroup"></path>
            <path d="M241.38,22.92 C241.38,33.185 233.06,41.505 222.797,41.505 C212.533,41.505 204.213,33.185 204.213,22.92 C204.213,12.656 212.533,4.337 222.797,4.337 C233.06,4.337 241.38,12.656 241.38,22.92" id="Fill-186" fill="#509877" sketch:type="MSShapeGroup"></path>
            <path d="M57.895,39.735 C57.895,48.532 50.763,55.664 41.965,55.664 C33.168,55.664 26.036,48.532 26.036,39.735 C26.036,30.938 33.168,23.806 41.965,23.806 C50.763,23.806 57.895,30.938 57.895,39.735" id="Fill-187" fill="#509877" sketch:type="MSShapeGroup"></path>
            <path d="M597,48 L600,48 L600,75 L597,75 L597,48 Z" id="Fill-188" fill="#5B4D37" sketch:type="MSShapeGroup"></path>
            <path d="M617.63,42.39 C617.63,52.841 609.158,61.313 598.708,61.313 C588.257,61.313 579.784,52.841 579.784,42.39 C579.784,31.938 588.257,23.467 598.708,23.467 C609.158,23.467 617.63,31.938 617.63,42.39" id="Fill-189" fill="#509877" sketch:type="MSShapeGroup"></path>
            <path d="M698,35 L701,35 L701,75 L698,75 L698,35 Z" id="Fill-198" fill="#5B4D37" sketch:type="MSShapeGroup"></path>
            <path d="M654,35 L658,35 L658,75 L654,75 L654,35 Z" id="Fill-194" fill="#5B4D37" sketch:type="MSShapeGroup"></path>
            <path d="M715.627,45.045 C715.627,53.842 708.496,60.974 699.698,60.974 C690.9,60.974 683.77,53.842 683.77,45.045 C683.77,36.247 690.9,29.115 699.698,29.115 C708.496,29.115 715.627,36.247 715.627,45.045" id="Fill-195" fill="#AEB986" sketch:type="MSShapeGroup"></path>
            <path d="M664.689,40.178 C664.689,53.898 660.727,65.024 655.84,65.024 C650.953,65.024 646.99,53.898 646.99,40.178 C646.99,26.455 650.953,15.33 655.84,15.33 C660.727,15.33 664.689,26.455 664.689,40.178" id="Fill-196" fill="#7A9F7C" sketch:type="MSShapeGroup"></path>
            <path d="M524,38 L528,38 L528,78 L524,78 L524,38 Z" id="Fill-202" fill="#5B4D37" sketch:type="MSShapeGroup"></path>
            <path d="M534.689,43.178 C534.689,56.898 530.727,68.024 525.84,68.024 C520.953,68.024 516.99,56.898 516.99,43.178 C516.99,29.455 520.953,18.33 525.84,18.33 C530.727,18.33 534.689,29.455 534.689,43.178" id="Fill-199" fill="#7A9F7C" sketch:type="MSShapeGroup"></path>
            <path d="M524,38 L528,38 L528,78 L524,78 L524,38 Z" id="Fill-200" fill="#5B4D37" sketch:type="MSShapeGroup"></path>
            <path d="M534.689,43.178 C534.689,56.898 530.727,68.024 525.84,68.024 C520.953,68.024 516.99,56.898 516.99,43.178 C516.99,29.455 520.953,18.33 525.84,18.33 C530.727,18.33 534.689,29.455 534.689,43.178" id="Fill-201" fill="#7A9F7C" sketch:type="MSShapeGroup"></path>
            <path d="M617.63,42.39 C617.63,52.841 609.158,61.313 598.708,61.313 C588.257,61.313 579.784,52.841 579.784,42.39 C579.784,31.938 588.257,23.467 598.708,23.467 C609.158,23.467 617.63,31.938 617.63,42.39" id="Fill-197" fill="#509877" sketch:type="MSShapeGroup"></path>
        </g>
    </g>
</svg>
